<svg xmlns="http://www.w3.org/2000/svg" xmlns:xlink="http://www.w3.org/1999/xlink" width="500" zoomAndPan="magnify" viewBox="0 0 375 374.999991" height="500" preserveAspectRatio="xMidYMid meet" version="1.0"><defs><g/></defs><rect x="-37.5" width="450" fill="#ffffff" y="-37.499999" height="449.999989" fill-opacity="1"/><rect x="-37.5" width="450" fill="#ffffff" y="-37.499999" height="449.999989" fill-opacity="1"/><g fill="#ffb800" fill-opacity="0.4784"><g transform="translate(5.353989, 225.7853)"><g><path d="M 139.84375 -31.40625 C 140.269531 -31.238281 140.484375 -30.878906 140.484375 -30.328125 C 140.484375 -29.785156 140.347656 -29.191406 140.078125 -28.546875 C 139.816406 -27.898438 139.625 -27.34375 139.5 -26.875 C 134.882812 -16.09375 129.425781 -5.757812 123.125 4.125 C 116.820312 14.019531 109.253906 22.734375 100.421875 30.265625 C 95.742188 34.140625 90.804688 37.644531 85.609375 40.78125 C 80.421875 43.914062 74.84375 46.546875 68.875 48.671875 C 65.09375 50.035156 61.648438 50.988281 58.546875 51.53125 C 55.441406 52.082031 51.832031 52.320312 47.71875 52.25 C 45.40625 52.320312 43.078125 52.265625 40.734375 52.078125 C 38.390625 51.898438 36.023438 51.492188 33.640625 50.859375 C 22.585938 47.710938 14.375 40.992188 9 30.703125 C 7.175781 27.117188 5.75 23.484375 4.71875 19.796875 C 3.695312 16.117188 2.9375 12.421875 2.4375 8.703125 C 1.175781 -1.242188 1.128906 -11.03125 2.296875 -20.65625 C 3.847656 -34.019531 6.554688 -46.863281 10.421875 -59.1875 C 14.285156 -71.519531 19.171875 -83.375 25.078125 -94.75 C 31.515625 -107.394531 39.429688 -118.976562 48.828125 -129.5 C 55.328125 -136.789062 62.738281 -143.023438 71.0625 -148.203125 C 77.269531 -152.148438 84.171875 -154.738281 91.765625 -155.96875 C 95.117188 -156.5625 98.503906 -156.410156 101.921875 -155.515625 C 107.265625 -154.222656 110.664062 -150.941406 112.125 -145.671875 C 113.15625 -141.390625 113.15625 -136.085938 112.125 -129.765625 C 111.09375 -123.441406 109.460938 -116.847656 107.234375 -109.984375 C 105.015625 -103.117188 102.550781 -96.75 99.84375 -90.875 C 97.144531 -85 94.671875 -80.320312 92.421875 -76.84375 C 91.753906 -75.945312 90.945312 -75.40625 90 -75.21875 C 89.050781 -75.039062 88 -75.097656 86.84375 -75.390625 C 86.25 -75.523438 85.769531 -75.847656 85.40625 -76.359375 C 85.039062 -76.878906 84.972656 -77.351562 85.203125 -77.78125 C 85.398438 -78.507812 85.679688 -79.207031 86.046875 -79.875 C 86.210938 -80.238281 86.394531 -80.632812 86.59375 -81.0625 C 87.425781 -83.0625 88.390625 -85.253906 89.484375 -87.640625 C 91.867188 -92.984375 94.351562 -98.832031 96.9375 -105.1875 C 99.53125 -111.539062 101.628906 -117.867188 103.234375 -124.171875 C 104.847656 -130.472656 105.4375 -136.175781 105 -141.28125 C 104.207031 -149.90625 99.832031 -153.125 91.875 -150.9375 C 88.351562 -149.976562 85.082031 -148.703125 82.0625 -147.109375 C 79.039062 -145.515625 76.140625 -143.722656 73.359375 -141.734375 C 67.816406 -137.722656 62.765625 -133.269531 58.203125 -128.375 C 53.640625 -123.476562 49.46875 -118.257812 45.6875 -112.71875 C 26.976562 -85.507812 15.484375 -54.671875 11.203125 -20.203125 C 9.941406 -10.210938 9.972656 -0.03125 11.296875 10.34375 C 12.023438 16.320312 13.765625 22.195312 16.515625 27.96875 C 19.304688 33.644531 22.617188 37.984375 26.453125 40.984375 C 30.285156 43.984375 34.265625 45.957031 38.390625 46.90625 C 42.523438 47.851562 46.414062 48.109375 50.0625 47.671875 C 56.46875 46.941406 62.488281 45.269531 68.125 42.65625 C 79.34375 37.539062 88.507812 32.097656 95.625 26.328125 C 102.738281 20.554688 108.707031 14.492188 113.53125 8.140625 C 118.363281 1.785156 122.890625 -4.859375 127.109375 -11.796875 C 128.796875 -14.546875 130.253906 -17.195312 131.484375 -19.75 C 132.941406 -22.769531 134.847656 -26.140625 137.203125 -29.859375 C 138.003906 -31.023438 138.882812 -31.539062 139.84375 -31.40625 Z M 139.84375 -31.40625 "/></g></g></g><g fill="#ffb800" fill-opacity="0.4784"><g transform="translate(139.262958, 225.7853)"><g><path d="M 51.453125 -25.03125 C 52.179688 -24.96875 52.054688 -23.960938 51.078125 -22.015625 C 50.109375 -20.078125 48.503906 -17.847656 46.265625 -15.328125 C 44.023438 -12.804688 41.519531 -10.632812 38.75 -8.8125 C 35.976562 -6.988281 33.210938 -6.160156 30.453125 -6.328125 C 28.398438 -6.523438 26.882812 -7.132812 25.90625 -8.15625 C 24.925781 -9.1875 24.253906 -10.320312 23.890625 -11.5625 C 23.523438 -12.8125 23.289062 -13.898438 23.1875 -14.828125 C 23.125 -15.492188 23.039062 -15.992188 22.9375 -16.328125 C 22.84375 -16.660156 22.644531 -16.675781 22.34375 -16.375 C 20.21875 -11.5 16.535156 -9.0625 11.296875 -9.0625 C 8.378906 -9.0625 6.003906 -10.351562 4.171875 -12.9375 C 2.347656 -15.53125 1.195312 -18.773438 0.71875 -22.671875 C 0.238281 -26.566406 0.613281 -30.519531 1.84375 -34.53125 C 2.144531 -35.863281 2.957031 -36.78125 4.28125 -37.28125 C 5.207031 -37.644531 6.164062 -37.609375 7.15625 -37.171875 C 8.15625 -36.742188 8.691406 -36.097656 8.765625 -35.234375 C 8.765625 -34.335938 8.695312 -33.457031 8.5625 -32.59375 C 8.394531 -31.9375 8.28125 -31.304688 8.21875 -30.703125 C 8.082031 -28.316406 8.117188 -25.695312 8.328125 -22.84375 C 8.546875 -19.988281 9.300781 -17.550781 10.59375 -15.53125 C 11.851562 -13.90625 13.242188 -13.695312 14.765625 -14.90625 C 16.296875 -16.113281 17.644531 -17.992188 18.8125 -20.546875 C 19.707031 -22.578125 20.410156 -24.59375 20.921875 -26.59375 C 21.441406 -28.601562 21.765625 -30.15625 21.890625 -31.25 C 22.023438 -31.71875 22.09375 -32.019531 22.09375 -32.15625 C 22.320312 -33.007812 22.554688 -33.851562 22.796875 -34.6875 C 23.160156 -35.914062 23.523438 -37.109375 23.890625 -38.265625 C 24.515625 -40.523438 26.109375 -41.472656 28.671875 -41.109375 C 30.222656 -40.972656 31.066406 -40.207031 31.203125 -38.8125 C 31.335938 -36.925781 31.367188 -35.035156 31.296875 -33.140625 C 31.234375 -31.148438 31.132812 -29.210938 31 -27.328125 C 30.832031 -24.566406 30.71875 -21.828125 30.65625 -19.109375 C 30.59375 -15.160156 31.378906 -12.863281 33.015625 -12.21875 C 34.660156 -11.570312 36.664062 -11.992188 39.03125 -13.484375 C 41.40625 -14.972656 43.691406 -17 45.890625 -19.5625 C 46.085938 -19.789062 46.332031 -20.085938 46.625 -20.453125 C 47.0625 -21.015625 47.59375 -21.644531 48.21875 -22.34375 C 48.851562 -23.039062 49.457031 -23.644531 50.03125 -24.15625 C 50.613281 -24.675781 51.085938 -24.96875 51.453125 -25.03125 Z M 13.140625 -51.40625 C 14.234375 -51.34375 15.128906 -51.066406 15.828125 -50.578125 C 16.523438 -50.097656 16.875 -49.492188 16.875 -48.765625 C 16.570312 -45.785156 15.109375 -44.296875 12.484375 -44.296875 C 10.429688 -44.523438 9.488281 -45.800781 9.65625 -48.125 C 9.851562 -50.25 11.015625 -51.34375 13.140625 -51.40625 Z M 26.921875 -51.40625 C 27.222656 -51.269531 27.488281 -51.054688 27.71875 -50.765625 C 28.21875 -50.035156 28.410156 -49.140625 28.296875 -48.078125 C 28.179688 -47.015625 27.847656 -46.023438 27.296875 -45.109375 C 26.742188 -44.203125 26.070312 -43.648438 25.28125 -43.453125 C 24.050781 -43.148438 23.03125 -43.304688 22.21875 -43.921875 C 21.40625 -44.535156 21.082031 -45.539062 21.25 -46.9375 C 21.25 -47.0625 21.28125 -47.242188 21.34375 -47.484375 C 21.34375 -47.847656 21.34375 -48.210938 21.34375 -48.578125 C 21.582031 -50.035156 22.222656 -51.035156 23.265625 -51.578125 C 24.304688 -52.128906 25.523438 -52.070312 26.921875 -51.40625 Z M 26.921875 -51.40625 "/></g></g></g><g fill="#ffb800" fill-opacity="0.4784"><g transform="translate(187.780708, 225.7853)"><g><path d="M 41.15625 -19.15625 C 43.707031 -23.207031 45.222656 -25.78125 45.703125 -26.875 C 46.191406 -27.96875 46.578125 -27.914062 46.859375 -26.71875 C 47.140625 -25.53125 46.316406 -22.835938 44.390625 -18.640625 C 42.460938 -14.441406 40.070312 -11.207031 37.21875 -8.9375 C 34.375 -6.664062 31.710938 -5.828125 29.234375 -6.421875 C 26.765625 -7.015625 25 -8.726562 23.9375 -11.5625 C 22.875 -14.40625 22.554688 -17.984375 22.984375 -22.296875 C 22.984375 -22.359375 23.019531 -22.539062 23.09375 -22.84375 C 23.15625 -23.570312 23.273438 -24.648438 23.453125 -26.078125 C 23.640625 -27.503906 23.773438 -28.976562 23.859375 -30.5 C 23.941406 -32.03125 23.890625 -33.289062 23.703125 -34.28125 C 23.523438 -35.28125 23.070312 -35.628906 22.34375 -35.328125 C 20.582031 -34.367188 18.863281 -32.488281 17.1875 -29.6875 C 15.519531 -26.882812 14.003906 -23.945312 12.640625 -20.875 C 11.273438 -17.8125 10.3125 -15.332031 9.75 -13.4375 C 9.519531 -12.84375 9.304688 -12.210938 9.109375 -11.546875 C 8.804688 -10.679688 8.472656 -9.816406 8.109375 -8.953125 C 7.148438 -6.460938 5.472656 -5.503906 3.078125 -6.078125 C 1.753906 -6.367188 0.976562 -7.179688 0.75 -8.515625 C 0.675781 -9.535156 0.640625 -10.515625 0.640625 -11.453125 C 0.640625 -12.046875 0.609375 -12.59375 0.546875 -13.09375 C 0.410156 -20.457031 0.226562 -27.867188 0 -35.328125 C 0.0625 -36.191406 0.441406 -36.789062 1.140625 -37.125 C 1.835938 -37.457031 2.671875 -37.625 3.640625 -37.625 C 4.367188 -37.625 5.054688 -37.421875 5.703125 -37.015625 C 6.347656 -36.617188 6.753906 -35.789062 6.921875 -34.53125 C 6.984375 -34.101562 7.015625 -33.675781 7.015625 -33.25 C 7.078125 -33.007812 7.109375 -32.789062 7.109375 -32.59375 C 7.242188 -31.5625 7.3125 -30.679688 7.3125 -29.953125 C 7.3125 -28.859375 7.382812 -28.113281 7.53125 -27.71875 C 7.6875 -27.320312 8.003906 -27.335938 8.484375 -27.765625 C 8.960938 -28.203125 9.75 -29.234375 10.84375 -30.859375 C 12.738281 -33.773438 15.078125 -36.242188 17.859375 -38.265625 C 20.421875 -40.085938 23.226562 -40.851562 26.28125 -40.5625 C 28.894531 -40.289062 30.648438 -38.910156 31.546875 -36.421875 C 31.910156 -35.160156 32.09375 -33.890625 32.09375 -32.609375 C 32.09375 -31.335938 32.007812 -30.054688 31.84375 -28.765625 C 31.78125 -27.441406 31.679688 -26.082031 31.546875 -24.6875 C 31.453125 -24.25 31.367188 -23.816406 31.296875 -23.390625 C 30.867188 -18.648438 31.019531 -15.472656 31.75 -13.859375 C 32.476562 -12.253906 33.585938 -11.722656 35.078125 -12.265625 C 36.578125 -12.816406 38.601562 -15.113281 41.15625 -19.15625 Z M 41.15625 -19.15625 "/></g></g></g><g fill="#ffb800" fill-opacity="0.4784"><g transform="translate(231.571077, 225.7853)"><g><path d="M 47.96875 -24.03125 C 48.695312 -24.46875 49.410156 -24.800781 50.109375 -25.03125 C 50.804688 -25.257812 51.265625 -25.238281 51.484375 -24.96875 C 51.703125 -24.707031 51.410156 -24.113281 50.609375 -23.1875 C 48.117188 -20.332031 45.140625 -17.71875 41.671875 -15.34375 C 38.210938 -12.976562 34.65625 -10.984375 31 -9.359375 C 28.144531 -8.066406 25.132812 -7.035156 21.96875 -6.265625 C 18.800781 -5.503906 15.664062 -5.335938 12.5625 -5.765625 C 9.457031 -6.203125 6.628906 -7.582031 4.078125 -9.90625 C 0.203125 -13.488281 -1.40625 -17.867188 -0.75 -23.046875 C -0.1875 -27.160156 1.410156 -30.648438 4.046875 -33.515625 C 6.691406 -36.390625 10.019531 -38.335938 14.03125 -39.359375 C 17.382812 -40.085938 20.738281 -40.171875 24.09375 -39.609375 C 25.613281 -39.378906 27.003906 -38.867188 28.265625 -38.078125 C 29.429688 -37.179688 30.070312 -36.132812 30.1875 -34.9375 C 30.300781 -33.738281 29.84375 -32.59375 28.8125 -31.5 C 26.6875 -29.613281 24.234375 -28.488281 21.453125 -28.125 C 18.328125 -27.59375 15.191406 -27.257812 12.046875 -27.125 C 10.515625 -27.125 9.441406 -26.804688 8.828125 -26.171875 C 8.210938 -25.546875 7.859375 -24.46875 7.765625 -22.9375 C 7.265625 -18.789062 8.59375 -15.410156 11.75 -12.796875 C 13.707031 -11.234375 16.085938 -10.566406 18.890625 -10.796875 C 21.691406 -11.023438 24.664062 -11.78125 27.8125 -13.0625 C 30.96875 -14.34375 34.054688 -15.835938 37.078125 -17.546875 C 40.097656 -19.253906 42.816406 -20.867188 45.234375 -22.390625 C 46.265625 -23.054688 47.175781 -23.601562 47.96875 -24.03125 Z M 13.390625 -32.890625 C 13.390625 -32.828125 13.335938 -32.796875 13.234375 -32.796875 C 13.097656 -32.660156 12.921875 -32.5 12.703125 -32.3125 C 12.492188 -32.132812 12.296875 -31.953125 12.109375 -31.765625 C 11.929688 -31.585938 11.84375 -31.46875 11.84375 -31.40625 C 11.90625 -31.164062 12.5 -31.101562 13.625 -31.21875 C 14.757812 -31.34375 16.003906 -31.546875 17.359375 -31.828125 C 18.722656 -32.109375 19.859375 -32.488281 20.765625 -32.96875 C 21.679688 -33.445312 21.957031 -34.019531 21.59375 -34.6875 C 21.425781 -34.882812 21.21875 -35.054688 20.96875 -35.203125 C 20.726562 -35.359375 20.457031 -35.46875 20.15625 -35.53125 C 18.832031 -35.53125 17.617188 -35.269531 16.515625 -34.75 C 15.421875 -34.238281 14.378906 -33.617188 13.390625 -32.890625 Z M 13.390625 -32.890625 "/></g></g></g><g fill="#ffb800" fill-opacity="0.4784"><g transform="translate(279.740483, 225.7853)"><g><path d="M 56.1875 -25.125 C 57.34375 -25.0625 57.539062 -24.484375 56.78125 -23.390625 C 56.019531 -22.296875 54.726562 -20.910156 52.90625 -19.234375 C 51.082031 -17.554688 49.109375 -15.804688 46.984375 -13.984375 C 44.128906 -11.554688 41.820312 -9.46875 40.0625 -7.71875 C 38.101562 -6.050781 36.519531 -3.738281 35.3125 -0.78125 C 34.101562 2.164062 33.5 4.878906 33.5 7.359375 C 33.5 8.691406 33.5 10.269531 33.5 12.09375 C 33.5625 15.8125 33.554688 20.28125 33.484375 25.5 C 33.421875 30.726562 33.128906 36.128906 32.609375 41.703125 C 32.097656 47.273438 31.171875 52.507812 29.828125 57.40625 C 28.484375 62.300781 26.566406 66.296875 24.078125 69.390625 C 21.597656 72.492188 18.429688 74.195312 14.578125 74.5 C 7.179688 74.695312 2.109375 71.628906 -0.640625 65.296875 C -2.765625 59.953125 -3.476562 54.472656 -2.78125 48.859375 C -2.082031 43.253906 -0.515625 37.78125 1.921875 32.4375 C 4.359375 27.101562 7.109375 22.195312 10.171875 17.71875 C 13.242188 13.238281 16.128906 9.476562 18.828125 6.4375 C 21.535156 3.40625 23.472656 1.375 24.640625 0.34375 C 25.128906 -1.3125 25.414062 -3.234375 25.5 -5.421875 C 25.582031 -7.609375 25.59375 -9.734375 25.53125 -11.796875 C 25.425781 -12.460938 25.375 -13.039062 25.375 -13.53125 C 23.914062 -11.28125 22.40625 -9.695312 20.84375 -8.78125 C 19.289062 -7.875 17.722656 -7.378906 16.140625 -7.296875 C 14.566406 -7.210938 13.082031 -7.253906 11.6875 -7.421875 C 11.5625 -7.421875 11.429688 -7.421875 11.296875 -7.421875 C 8.078125 -7.847656 5.535156 -9.351562 3.671875 -11.9375 C 1.816406 -14.53125 0.613281 -17.484375 0.0625 -20.796875 C -0.476562 -24.117188 -0.335938 -27.097656 0.484375 -29.734375 C 1.316406 -32.367188 2.832031 -33.90625 5.03125 -34.34375 C 5.925781 -34.570312 6.921875 -34.6875 8.015625 -34.6875 C 9.109375 -34.6875 10.019531 -34.535156 10.75 -34.234375 C 11.476562 -33.941406 11.726562 -33.394531 11.5 -32.59375 C 10.832031 -29.875 10.445312 -26.929688 10.34375 -23.765625 C 10.25 -20.597656 10.523438 -17.84375 11.171875 -15.5 C 11.816406 -13.164062 12.976562 -11.90625 14.65625 -11.71875 C 16.332031 -11.539062 18.5625 -13.0625 21.34375 -16.28125 C 22.675781 -17.96875 23.585938 -19.695312 24.078125 -21.46875 C 24.578125 -23.25 24.976562 -25.164062 25.28125 -27.21875 C 25.34375 -27.945312 25.457031 -28.675781 25.625 -29.40625 C 25.695312 -30.132812 25.796875 -30.867188 25.921875 -31.609375 C 26.023438 -32.566406 26.144531 -33.507812 26.28125 -34.4375 C 26.644531 -35.96875 27.5 -37.03125 28.84375 -37.625 C 30.1875 -38.21875 31.632812 -38.148438 33.1875 -37.421875 C 33.988281 -36.960938 34.457031 -36.300781 34.59375 -35.4375 C 34.757812 -33.738281 34.84375 -32.0625 34.84375 -30.40625 C 34.738281 -24.5 34.6875 -17.234375 34.6875 -8.609375 C 34.789062 -8.671875 35.519531 -9.285156 36.875 -10.453125 C 38.632812 -12.078125 40.863281 -14.015625 43.5625 -16.265625 C 46.269531 -18.523438 48.828125 -20.550781 51.234375 -22.34375 C 53.640625 -24.132812 55.289062 -25.0625 56.1875 -25.125 Z M 23.734375 25.4375 C 23.734375 24.632812 23.785156 23.800781 23.890625 22.9375 C 23.953125 19.789062 24.050781 16.609375 24.1875 13.390625 C 24.1875 13.253906 24.132812 13.078125 24.03125 12.859375 C 23.9375 12.648438 23.804688 12.492188 23.640625 12.390625 C 23.273438 12.128906 22.96875 12.085938 22.71875 12.265625 C 22.46875 12.453125 22.226562 12.644531 22 12.84375 C 18.945312 16.789062 16.066406 21.257812 13.359375 26.25 C 10.660156 31.238281 8.546875 36.4375 7.015625 41.84375 C 5.492188 47.257812 4.863281 52.554688 5.125 57.734375 C 5.351562 60.953125 6.382812 63.90625 8.21875 66.59375 C 10.40625 69.601562 12.316406 70.6875 13.953125 69.84375 C 15.597656 69 16.984375 66.914062 18.109375 63.59375 C 19.242188 60.28125 20.175781 56.375 20.90625 51.875 C 21.632812 47.382812 22.195312 42.988281 22.59375 38.6875 C 22.988281 34.394531 23.304688 30.820312 23.546875 27.96875 C 23.609375 27.007812 23.671875 26.164062 23.734375 25.4375 Z M 23.734375 25.4375 "/></g></g></g><g fill="#ffb800" fill-opacity="0.4784"><g transform="translate(332.388449, 225.7853)"><g><path d="M 36.53125 -23.9375 C 38.351562 -25.695312 39.140625 -26.132812 38.890625 -25.25 C 38.640625 -24.375 37.632812 -22.78125 35.875 -20.46875 C 34.125 -18.164062 31.9375 -15.671875 29.3125 -12.984375 C 26.6875 -10.296875 23.914062 -7.960938 21 -5.984375 C 18.082031 -4.015625 15.3125 -2.945312 12.6875 -2.78125 C 9.46875 -2.78125 6.890625 -3.734375 4.953125 -5.640625 C 3.015625 -7.554688 1.628906 -10.082031 0.796875 -13.21875 C -0.0351562 -16.351562 -0.382812 -19.742188 -0.25 -23.390625 C -0.0820312 -27.472656 0.0664062 -31.554688 0.203125 -35.640625 C 0.265625 -37.691406 0.328125 -39.695312 0.390625 -41.65625 C 0.554688 -44.9375 0.675781 -48.222656 0.75 -51.515625 C 0.8125 -52.535156 0.644531 -53.394531 0.25 -54.09375 C -0.144531 -54.789062 -0.859375 -55.171875 -1.890625 -55.234375 C -3.054688 -55.304688 -4.515625 -55.34375 -6.265625 -55.34375 C -7.796875 -55.34375 -9.109375 -55.34375 -10.203125 -55.34375 C -11.722656 -55.507812 -12.738281 -55.914062 -13.25 -56.5625 C -13.769531 -57.207031 -13.367188 -57.863281 -12.046875 -58.53125 C -11.117188 -58.894531 -10 -59.09375 -8.6875 -59.125 C -7.375 -59.15625 -6.085938 -59.140625 -4.828125 -59.078125 C -4.035156 -59.003906 -3.335938 -58.96875 -2.734375 -58.96875 C -0.773438 -58.96875 0.414062 -59.273438 0.84375 -59.890625 C 1.28125 -60.503906 1.546875 -61.722656 1.640625 -63.546875 C 1.773438 -65.472656 1.875 -67.414062 1.9375 -69.375 C 2.007812 -70.40625 2.09375 -71.429688 2.1875 -72.453125 C 2.1875 -73.984375 2.585938 -75.363281 3.390625 -76.59375 C 4.242188 -77.75 5.335938 -78.195312 6.671875 -77.9375 C 7.828125 -77.632812 8.472656 -76.90625 8.609375 -75.75 C 8.710938 -73.820312 8.765625 -71.878906 8.765625 -69.921875 C 8.828125 -68.828125 8.828125 -67.734375 8.765625 -66.640625 C 8.765625 -65.472656 8.796875 -64.257812 8.859375 -63 C 8.796875 -61.28125 8.992188 -60.195312 9.453125 -59.75 C 9.921875 -59.300781 11.066406 -59.078125 12.890625 -59.078125 C 15.878906 -59.078125 18.832031 -59.078125 21.75 -59.078125 C 23.070312 -59.078125 27.019531 -59.164062 33.59375 -59.34375 C 40.164062 -59.53125 43.707031 -59 44.21875 -57.75 C 44.726562 -56.507812 40.570312 -55.789062 31.75 -55.59375 C 26.40625 -55.289062 22.273438 -55.140625 19.359375 -55.140625 C 17.398438 -55.203125 15.640625 -55.234375 14.078125 -55.234375 C 11.460938 -55.234375 9.847656 -54.773438 9.234375 -53.859375 C 8.617188 -52.953125 8.34375 -51.125 8.40625 -48.375 C 8.34375 -46.019531 8.226562 -43.164062 8.0625 -39.8125 C 7.632812 -32.945312 7.421875 -25.945312 7.421875 -18.8125 C 7.578125 -13.90625 8.453125 -10.71875 10.046875 -9.25 C 11.640625 -7.789062 13.710938 -7.515625 16.265625 -8.421875 C 18.828125 -9.335938 21.59375 -10.96875 24.5625 -13.3125 C 27.53125 -15.65625 30.472656 -18.171875 33.390625 -20.859375 C 34.023438 -21.679688 34.789062 -22.457031 35.6875 -23.1875 C 35.976562 -23.457031 36.257812 -23.707031 36.53125 -23.9375 Z M 36.53125 -23.9375 "/></g></g></g><g fill="#2289bb" fill-opacity="1"><g transform="translate(0.849737, 221.281045)"><g><path d="M 139.84375 -31.40625 C 140.269531 -31.238281 140.484375 -30.878906 140.484375 -30.328125 C 140.484375 -29.785156 140.347656 -29.191406 140.078125 -28.546875 C 139.816406 -27.898438 139.625 -27.34375 139.5 -26.875 C 134.882812 -16.09375 129.425781 -5.757812 123.125 4.125 C 116.820312 14.019531 109.253906 22.734375 100.421875 30.265625 C 95.742188 34.140625 90.804688 37.644531 85.609375 40.78125 C 80.421875 43.914062 74.84375 46.546875 68.875 48.671875 C 65.09375 50.035156 61.648438 50.988281 58.546875 51.53125 C 55.441406 52.082031 51.832031 52.320312 47.71875 52.25 C 45.40625 52.320312 43.078125 52.265625 40.734375 52.078125 C 38.390625 51.898438 36.023438 51.492188 33.640625 50.859375 C 22.585938 47.710938 14.375 40.992188 9 30.703125 C 7.175781 27.117188 5.75 23.484375 4.71875 19.796875 C 3.695312 16.117188 2.9375 12.421875 2.4375 8.703125 C 1.175781 -1.242188 1.128906 -11.03125 2.296875 -20.65625 C 3.847656 -34.019531 6.554688 -46.863281 10.421875 -59.1875 C 14.285156 -71.519531 19.171875 -83.375 25.078125 -94.75 C 31.515625 -107.394531 39.429688 -118.976562 48.828125 -129.5 C 55.328125 -136.789062 62.738281 -143.023438 71.0625 -148.203125 C 77.269531 -152.148438 84.171875 -154.738281 91.765625 -155.96875 C 95.117188 -156.5625 98.503906 -156.410156 101.921875 -155.515625 C 107.265625 -154.222656 110.664062 -150.941406 112.125 -145.671875 C 113.15625 -141.390625 113.15625 -136.085938 112.125 -129.765625 C 111.09375 -123.441406 109.460938 -116.847656 107.234375 -109.984375 C 105.015625 -103.117188 102.550781 -96.75 99.84375 -90.875 C 97.144531 -85 94.671875 -80.320312 92.421875 -76.84375 C 91.753906 -75.945312 90.945312 -75.40625 90 -75.21875 C 89.050781 -75.039062 88 -75.097656 86.84375 -75.390625 C 86.25 -75.523438 85.769531 -75.847656 85.40625 -76.359375 C 85.039062 -76.878906 84.972656 -77.351562 85.203125 -77.78125 C 85.398438 -78.507812 85.679688 -79.207031 86.046875 -79.875 C 86.210938 -80.238281 86.394531 -80.632812 86.59375 -81.0625 C 87.425781 -83.0625 88.390625 -85.253906 89.484375 -87.640625 C 91.867188 -92.984375 94.351562 -98.832031 96.9375 -105.1875 C 99.53125 -111.539062 101.628906 -117.867188 103.234375 -124.171875 C 104.847656 -130.472656 105.4375 -136.175781 105 -141.28125 C 104.207031 -149.90625 99.832031 -153.125 91.875 -150.9375 C 88.351562 -149.976562 85.082031 -148.703125 82.0625 -147.109375 C 79.039062 -145.515625 76.140625 -143.722656 73.359375 -141.734375 C 67.816406 -137.722656 62.765625 -133.269531 58.203125 -128.375 C 53.640625 -123.476562 49.46875 -118.257812 45.6875 -112.71875 C 26.976562 -85.507812 15.484375 -54.671875 11.203125 -20.203125 C 9.941406 -10.210938 9.972656 -0.03125 11.296875 10.34375 C 12.023438 16.320312 13.765625 22.195312 16.515625 27.96875 C 19.304688 33.644531 22.617188 37.984375 26.453125 40.984375 C 30.285156 43.984375 34.265625 45.957031 38.390625 46.90625 C 42.523438 47.851562 46.414062 48.109375 50.0625 47.671875 C 56.46875 46.941406 62.488281 45.269531 68.125 42.65625 C 79.34375 37.539062 88.507812 32.097656 95.625 26.328125 C 102.738281 20.554688 108.707031 14.492188 113.53125 8.140625 C 118.363281 1.785156 122.890625 -4.859375 127.109375 -11.796875 C 128.796875 -14.546875 130.253906 -17.195312 131.484375 -19.75 C 132.941406 -22.769531 134.847656 -26.140625 137.203125 -29.859375 C 138.003906 -31.023438 138.882812 -31.539062 139.84375 -31.40625 Z M 139.84375 -31.40625 "/></g></g></g><g fill="#2289bb" fill-opacity="1"><g transform="translate(134.758706, 221.281045)"><g><path d="M 51.453125 -25.03125 C 52.179688 -24.96875 52.054688 -23.960938 51.078125 -22.015625 C 50.109375 -20.078125 48.503906 -17.847656 46.265625 -15.328125 C 44.023438 -12.804688 41.519531 -10.632812 38.75 -8.8125 C 35.976562 -6.988281 33.210938 -6.160156 30.453125 -6.328125 C 28.398438 -6.523438 26.882812 -7.132812 25.90625 -8.15625 C 24.925781 -9.1875 24.253906 -10.320312 23.890625 -11.5625 C 23.523438 -12.8125 23.289062 -13.898438 23.1875 -14.828125 C 23.125 -15.492188 23.039062 -15.992188 22.9375 -16.328125 C 22.84375 -16.660156 22.644531 -16.675781 22.34375 -16.375 C 20.21875 -11.5 16.535156 -9.0625 11.296875 -9.0625 C 8.378906 -9.0625 6.003906 -10.351562 4.171875 -12.9375 C 2.347656 -15.53125 1.195312 -18.773438 0.71875 -22.671875 C 0.238281 -26.566406 0.613281 -30.519531 1.84375 -34.53125 C 2.144531 -35.863281 2.957031 -36.78125 4.28125 -37.28125 C 5.207031 -37.644531 6.164062 -37.609375 7.15625 -37.171875 C 8.15625 -36.742188 8.691406 -36.097656 8.765625 -35.234375 C 8.765625 -34.335938 8.695312 -33.457031 8.5625 -32.59375 C 8.394531 -31.9375 8.28125 -31.304688 8.21875 -30.703125 C 8.082031 -28.316406 8.117188 -25.695312 8.328125 -22.84375 C 8.546875 -19.988281 9.300781 -17.550781 10.59375 -15.53125 C 11.851562 -13.90625 13.242188 -13.695312 14.765625 -14.90625 C 16.296875 -16.113281 17.644531 -17.992188 18.8125 -20.546875 C 19.707031 -22.578125 20.410156 -24.59375 20.921875 -26.59375 C 21.441406 -28.601562 21.765625 -30.15625 21.890625 -31.25 C 22.023438 -31.71875 22.09375 -32.019531 22.09375 -32.15625 C 22.320312 -33.007812 22.554688 -33.851562 22.796875 -34.6875 C 23.160156 -35.914062 23.523438 -37.109375 23.890625 -38.265625 C 24.515625 -40.523438 26.109375 -41.472656 28.671875 -41.109375 C 30.222656 -40.972656 31.066406 -40.207031 31.203125 -38.8125 C 31.335938 -36.925781 31.367188 -35.035156 31.296875 -33.140625 C 31.234375 -31.148438 31.132812 -29.210938 31 -27.328125 C 30.832031 -24.566406 30.71875 -21.828125 30.65625 -19.109375 C 30.59375 -15.160156 31.378906 -12.863281 33.015625 -12.21875 C 34.660156 -11.570312 36.664062 -11.992188 39.03125 -13.484375 C 41.40625 -14.972656 43.691406 -17 45.890625 -19.5625 C 46.085938 -19.789062 46.332031 -20.085938 46.625 -20.453125 C 47.0625 -21.015625 47.59375 -21.644531 48.21875 -22.34375 C 48.851562 -23.039062 49.457031 -23.644531 50.03125 -24.15625 C 50.613281 -24.675781 51.085938 -24.96875 51.453125 -25.03125 Z M 13.140625 -51.40625 C 14.234375 -51.34375 15.128906 -51.066406 15.828125 -50.578125 C 16.523438 -50.097656 16.875 -49.492188 16.875 -48.765625 C 16.570312 -45.785156 15.109375 -44.296875 12.484375 -44.296875 C 10.429688 -44.523438 9.488281 -45.800781 9.65625 -48.125 C 9.851562 -50.25 11.015625 -51.34375 13.140625 -51.40625 Z M 26.921875 -51.40625 C 27.222656 -51.269531 27.488281 -51.054688 27.71875 -50.765625 C 28.21875 -50.035156 28.410156 -49.140625 28.296875 -48.078125 C 28.179688 -47.015625 27.847656 -46.023438 27.296875 -45.109375 C 26.742188 -44.203125 26.070312 -43.648438 25.28125 -43.453125 C 24.050781 -43.148438 23.03125 -43.304688 22.21875 -43.921875 C 21.40625 -44.535156 21.082031 -45.539062 21.25 -46.9375 C 21.25 -47.0625 21.28125 -47.242188 21.34375 -47.484375 C 21.34375 -47.847656 21.34375 -48.210938 21.34375 -48.578125 C 21.582031 -50.035156 22.222656 -51.035156 23.265625 -51.578125 C 24.304688 -52.128906 25.523438 -52.070312 26.921875 -51.40625 Z M 26.921875 -51.40625 "/></g></g></g><g fill="#2289bb" fill-opacity="1"><g transform="translate(183.276456, 221.281045)"><g><path d="M 41.15625 -19.15625 C 43.707031 -23.207031 45.222656 -25.78125 45.703125 -26.875 C 46.191406 -27.96875 46.578125 -27.914062 46.859375 -26.71875 C 47.140625 -25.53125 46.316406 -22.835938 44.390625 -18.640625 C 42.460938 -14.441406 40.070312 -11.207031 37.21875 -8.9375 C 34.375 -6.664062 31.710938 -5.828125 29.234375 -6.421875 C 26.765625 -7.015625 25 -8.726562 23.9375 -11.5625 C 22.875 -14.40625 22.554688 -17.984375 22.984375 -22.296875 C 22.984375 -22.359375 23.019531 -22.539062 23.09375 -22.84375 C 23.15625 -23.570312 23.273438 -24.648438 23.453125 -26.078125 C 23.640625 -27.503906 23.773438 -28.976562 23.859375 -30.5 C 23.941406 -32.03125 23.890625 -33.289062 23.703125 -34.28125 C 23.523438 -35.28125 23.070312 -35.628906 22.34375 -35.328125 C 20.582031 -34.367188 18.863281 -32.488281 17.1875 -29.6875 C 15.519531 -26.882812 14.003906 -23.945312 12.640625 -20.875 C 11.273438 -17.8125 10.3125 -15.332031 9.75 -13.4375 C 9.519531 -12.84375 9.304688 -12.210938 9.109375 -11.546875 C 8.804688 -10.679688 8.472656 -9.816406 8.109375 -8.953125 C 7.148438 -6.460938 5.472656 -5.503906 3.078125 -6.078125 C 1.753906 -6.367188 0.976562 -7.179688 0.75 -8.515625 C 0.675781 -9.535156 0.640625 -10.515625 0.640625 -11.453125 C 0.640625 -12.046875 0.609375 -12.59375 0.546875 -13.09375 C 0.410156 -20.457031 0.226562 -27.867188 0 -35.328125 C 0.0625 -36.191406 0.441406 -36.789062 1.140625 -37.125 C 1.835938 -37.457031 2.671875 -37.625 3.640625 -37.625 C 4.367188 -37.625 5.054688 -37.421875 5.703125 -37.015625 C 6.347656 -36.617188 6.753906 -35.789062 6.921875 -34.53125 C 6.984375 -34.101562 7.015625 -33.675781 7.015625 -33.25 C 7.078125 -33.007812 7.109375 -32.789062 7.109375 -32.59375 C 7.242188 -31.5625 7.3125 -30.679688 7.3125 -29.953125 C 7.3125 -28.859375 7.382812 -28.113281 7.53125 -27.71875 C 7.6875 -27.320312 8.003906 -27.335938 8.484375 -27.765625 C 8.960938 -28.203125 9.75 -29.234375 10.84375 -30.859375 C 12.738281 -33.773438 15.078125 -36.242188 17.859375 -38.265625 C 20.421875 -40.085938 23.226562 -40.851562 26.28125 -40.5625 C 28.894531 -40.289062 30.648438 -38.910156 31.546875 -36.421875 C 31.910156 -35.160156 32.09375 -33.890625 32.09375 -32.609375 C 32.09375 -31.335938 32.007812 -30.054688 31.84375 -28.765625 C 31.78125 -27.441406 31.679688 -26.082031 31.546875 -24.6875 C 31.453125 -24.25 31.367188 -23.816406 31.296875 -23.390625 C 30.867188 -18.648438 31.019531 -15.472656 31.75 -13.859375 C 32.476562 -12.253906 33.585938 -11.722656 35.078125 -12.265625 C 36.578125 -12.816406 38.601562 -15.113281 41.15625 -19.15625 Z M 41.15625 -19.15625 "/></g></g></g><g fill="#2289bb" fill-opacity="1"><g transform="translate(227.066825, 221.281045)"><g><path d="M 47.96875 -24.03125 C 48.695312 -24.46875 49.410156 -24.800781 50.109375 -25.03125 C 50.804688 -25.257812 51.265625 -25.238281 51.484375 -24.96875 C 51.703125 -24.707031 51.410156 -24.113281 50.609375 -23.1875 C 48.117188 -20.332031 45.140625 -17.71875 41.671875 -15.34375 C 38.210938 -12.976562 34.65625 -10.984375 31 -9.359375 C 28.144531 -8.066406 25.132812 -7.035156 21.96875 -6.265625 C 18.800781 -5.503906 15.664062 -5.335938 12.5625 -5.765625 C 9.457031 -6.203125 6.628906 -7.582031 4.078125 -9.90625 C 0.203125 -13.488281 -1.40625 -17.867188 -0.75 -23.046875 C -0.1875 -27.160156 1.410156 -30.648438 4.046875 -33.515625 C 6.691406 -36.390625 10.019531 -38.335938 14.03125 -39.359375 C 17.382812 -40.085938 20.738281 -40.171875 24.09375 -39.609375 C 25.613281 -39.378906 27.003906 -38.867188 28.265625 -38.078125 C 29.429688 -37.179688 30.070312 -36.132812 30.1875 -34.9375 C 30.300781 -33.738281 29.84375 -32.59375 28.8125 -31.5 C 26.6875 -29.613281 24.234375 -28.488281 21.453125 -28.125 C 18.328125 -27.59375 15.191406 -27.257812 12.046875 -27.125 C 10.515625 -27.125 9.441406 -26.804688 8.828125 -26.171875 C 8.210938 -25.546875 7.859375 -24.46875 7.765625 -22.9375 C 7.265625 -18.789062 8.59375 -15.410156 11.75 -12.796875 C 13.707031 -11.234375 16.085938 -10.566406 18.890625 -10.796875 C 21.691406 -11.023438 24.664062 -11.78125 27.8125 -13.0625 C 30.96875 -14.34375 34.054688 -15.835938 37.078125 -17.546875 C 40.097656 -19.253906 42.816406 -20.867188 45.234375 -22.390625 C 46.265625 -23.054688 47.175781 -23.601562 47.96875 -24.03125 Z M 13.390625 -32.890625 C 13.390625 -32.828125 13.335938 -32.796875 13.234375 -32.796875 C 13.097656 -32.660156 12.921875 -32.5 12.703125 -32.3125 C 12.492188 -32.132812 12.296875 -31.953125 12.109375 -31.765625 C 11.929688 -31.585938 11.84375 -31.46875 11.84375 -31.40625 C 11.90625 -31.164062 12.5 -31.101562 13.625 -31.21875 C 14.757812 -31.34375 16.003906 -31.546875 17.359375 -31.828125 C 18.722656 -32.109375 19.859375 -32.488281 20.765625 -32.96875 C 21.679688 -33.445312 21.957031 -34.019531 21.59375 -34.6875 C 21.425781 -34.882812 21.21875 -35.054688 20.96875 -35.203125 C 20.726562 -35.359375 20.457031 -35.46875 20.15625 -35.53125 C 18.832031 -35.53125 17.617188 -35.269531 16.515625 -34.75 C 15.421875 -34.238281 14.378906 -33.617188 13.390625 -32.890625 Z M 13.390625 -32.890625 "/></g></g></g><g fill="#2289bb" fill-opacity="1"><g transform="translate(275.236231, 221.281045)"><g><path d="M 56.1875 -25.125 C 57.34375 -25.0625 57.539062 -24.484375 56.78125 -23.390625 C 56.019531 -22.296875 54.726562 -20.910156 52.90625 -19.234375 C 51.082031 -17.554688 49.109375 -15.804688 46.984375 -13.984375 C 44.128906 -11.554688 41.820312 -9.46875 40.0625 -7.71875 C 38.101562 -6.050781 36.519531 -3.738281 35.3125 -0.78125 C 34.101562 2.164062 33.5 4.878906 33.5 7.359375 C 33.5 8.691406 33.5 10.269531 33.5 12.09375 C 33.5625 15.8125 33.554688 20.28125 33.484375 25.5 C 33.421875 30.726562 33.128906 36.128906 32.609375 41.703125 C 32.097656 47.273438 31.171875 52.507812 29.828125 57.40625 C 28.484375 62.300781 26.566406 66.296875 24.078125 69.390625 C 21.597656 72.492188 18.429688 74.195312 14.578125 74.5 C 7.179688 74.695312 2.109375 71.628906 -0.640625 65.296875 C -2.765625 59.953125 -3.476562 54.472656 -2.78125 48.859375 C -2.082031 43.253906 -0.515625 37.78125 1.921875 32.4375 C 4.359375 27.101562 7.109375 22.195312 10.171875 17.71875 C 13.242188 13.238281 16.128906 9.476562 18.828125 6.4375 C 21.535156 3.40625 23.472656 1.375 24.640625 0.34375 C 25.128906 -1.3125 25.414062 -3.234375 25.5 -5.421875 C 25.582031 -7.609375 25.59375 -9.734375 25.53125 -11.796875 C 25.425781 -12.460938 25.375 -13.039062 25.375 -13.53125 C 23.914062 -11.28125 22.40625 -9.695312 20.84375 -8.78125 C 19.289062 -7.875 17.722656 -7.378906 16.140625 -7.296875 C 14.566406 -7.210938 13.082031 -7.253906 11.6875 -7.421875 C 11.5625 -7.421875 11.429688 -7.421875 11.296875 -7.421875 C 8.078125 -7.847656 5.535156 -9.351562 3.671875 -11.9375 C 1.816406 -14.53125 0.613281 -17.484375 0.0625 -20.796875 C -0.476562 -24.117188 -0.335938 -27.097656 0.484375 -29.734375 C 1.316406 -32.367188 2.832031 -33.90625 5.03125 -34.34375 C 5.925781 -34.570312 6.921875 -34.6875 8.015625 -34.6875 C 9.109375 -34.6875 10.019531 -34.535156 10.75 -34.234375 C 11.476562 -33.941406 11.726562 -33.394531 11.5 -32.59375 C 10.832031 -29.875 10.445312 -26.929688 10.34375 -23.765625 C 10.25 -20.597656 10.523438 -17.84375 11.171875 -15.5 C 11.816406 -13.164062 12.976562 -11.90625 14.65625 -11.71875 C 16.332031 -11.539062 18.5625 -13.0625 21.34375 -16.28125 C 22.675781 -17.96875 23.585938 -19.695312 24.078125 -21.46875 C 24.578125 -23.25 24.976562 -25.164062 25.28125 -27.21875 C 25.34375 -27.945312 25.457031 -28.675781 25.625 -29.40625 C 25.695312 -30.132812 25.796875 -30.867188 25.921875 -31.609375 C 26.023438 -32.566406 26.144531 -33.507812 26.28125 -34.4375 C 26.644531 -35.96875 27.5 -37.03125 28.84375 -37.625 C 30.1875 -38.21875 31.632812 -38.148438 33.1875 -37.421875 C 33.988281 -36.960938 34.457031 -36.300781 34.59375 -35.4375 C 34.757812 -33.738281 34.84375 -32.0625 34.84375 -30.40625 C 34.738281 -24.5 34.6875 -17.234375 34.6875 -8.609375 C 34.789062 -8.671875 35.519531 -9.285156 36.875 -10.453125 C 38.632812 -12.078125 40.863281 -14.015625 43.5625 -16.265625 C 46.269531 -18.523438 48.828125 -20.550781 51.234375 -22.34375 C 53.640625 -24.132812 55.289062 -25.0625 56.1875 -25.125 Z M 23.734375 25.4375 C 23.734375 24.632812 23.785156 23.800781 23.890625 22.9375 C 23.953125 19.789062 24.050781 16.609375 24.1875 13.390625 C 24.1875 13.253906 24.132812 13.078125 24.03125 12.859375 C 23.9375 12.648438 23.804688 12.492188 23.640625 12.390625 C 23.273438 12.128906 22.96875 12.085938 22.71875 12.265625 C 22.46875 12.453125 22.226562 12.644531 22 12.84375 C 18.945312 16.789062 16.066406 21.257812 13.359375 26.25 C 10.660156 31.238281 8.546875 36.4375 7.015625 41.84375 C 5.492188 47.257812 4.863281 52.554688 5.125 57.734375 C 5.351562 60.953125 6.382812 63.90625 8.21875 66.59375 C 10.40625 69.601562 12.316406 70.6875 13.953125 69.84375 C 15.597656 69 16.984375 66.914062 18.109375 63.59375 C 19.242188 60.28125 20.175781 56.375 20.90625 51.875 C 21.632812 47.382812 22.195312 42.988281 22.59375 38.6875 C 22.988281 34.394531 23.304688 30.820312 23.546875 27.96875 C 23.609375 27.007812 23.671875 26.164062 23.734375 25.4375 Z M 23.734375 25.4375 "/></g></g></g><g fill="#2289bb" fill-opacity="1"><g transform="translate(327.884197, 221.281045)"><g><path d="M 36.53125 -23.9375 C 38.351562 -25.695312 39.140625 -26.132812 38.890625 -25.25 C 38.640625 -24.375 37.632812 -22.78125 35.875 -20.46875 C 34.125 -18.164062 31.9375 -15.671875 29.3125 -12.984375 C 26.6875 -10.296875 23.914062 -7.960938 21 -5.984375 C 18.082031 -4.015625 15.3125 -2.945312 12.6875 -2.78125 C 9.46875 -2.78125 6.890625 -3.734375 4.953125 -5.640625 C 3.015625 -7.554688 1.628906 -10.082031 0.796875 -13.21875 C -0.0351562 -16.351562 -0.382812 -19.742188 -0.25 -23.390625 C -0.0820312 -27.472656 0.0664062 -31.554688 0.203125 -35.640625 C 0.265625 -37.691406 0.328125 -39.695312 0.390625 -41.65625 C 0.554688 -44.9375 0.675781 -48.222656 0.75 -51.515625 C 0.8125 -52.535156 0.644531 -53.394531 0.25 -54.09375 C -0.144531 -54.789062 -0.859375 -55.171875 -1.890625 -55.234375 C -3.054688 -55.304688 -4.515625 -55.34375 -6.265625 -55.34375 C -7.796875 -55.34375 -9.109375 -55.34375 -10.203125 -55.34375 C -11.722656 -55.507812 -12.738281 -55.914062 -13.25 -56.5625 C -13.769531 -57.207031 -13.367188 -57.863281 -12.046875 -58.53125 C -11.117188 -58.894531 -10 -59.09375 -8.6875 -59.125 C -7.375 -59.15625 -6.085938 -59.140625 -4.828125 -59.078125 C -4.035156 -59.003906 -3.335938 -58.96875 -2.734375 -58.96875 C -0.773438 -58.96875 0.414062 -59.273438 0.84375 -59.890625 C 1.28125 -60.503906 1.546875 -61.722656 1.640625 -63.546875 C 1.773438 -65.472656 1.875 -67.414062 1.9375 -69.375 C 2.007812 -70.40625 2.09375 -71.429688 2.1875 -72.453125 C 2.1875 -73.984375 2.585938 -75.363281 3.390625 -76.59375 C 4.242188 -77.75 5.335938 -78.195312 6.671875 -77.9375 C 7.828125 -77.632812 8.472656 -76.90625 8.609375 -75.75 C 8.710938 -73.820312 8.765625 -71.878906 8.765625 -69.921875 C 8.828125 -68.828125 8.828125 -67.734375 8.765625 -66.640625 C 8.765625 -65.472656 8.796875 -64.257812 8.859375 -63 C 8.796875 -61.28125 8.992188 -60.195312 9.453125 -59.75 C 9.921875 -59.300781 11.066406 -59.078125 12.890625 -59.078125 C 15.878906 -59.078125 18.832031 -59.078125 21.75 -59.078125 C 23.070312 -59.078125 27.019531 -59.164062 33.59375 -59.34375 C 40.164062 -59.53125 43.707031 -59 44.21875 -57.75 C 44.726562 -56.507812 40.570312 -55.789062 31.75 -55.59375 C 26.40625 -55.289062 22.273438 -55.140625 19.359375 -55.140625 C 17.398438 -55.203125 15.640625 -55.234375 14.078125 -55.234375 C 11.460938 -55.234375 9.847656 -54.773438 9.234375 -53.859375 C 8.617188 -52.953125 8.34375 -51.125 8.40625 -48.375 C 8.34375 -46.019531 8.226562 -43.164062 8.0625 -39.8125 C 7.632812 -32.945312 7.421875 -25.945312 7.421875 -18.8125 C 7.578125 -13.90625 8.453125 -10.71875 10.046875 -9.25 C 11.640625 -7.789062 13.710938 -7.515625 16.265625 -8.421875 C 18.828125 -9.335938 21.59375 -10.96875 24.5625 -13.3125 C 27.53125 -15.65625 30.472656 -18.171875 33.390625 -20.859375 C 34.023438 -21.679688 34.789062 -22.457031 35.6875 -23.1875 C 35.976562 -23.457031 36.257812 -23.707031 36.53125 -23.9375 Z M 36.53125 -23.9375 "/></g></g></g><g fill="#c68f00" fill-opacity="0.4"><g transform="translate(212.26206, 256.081346)"><g><path d="M 8.953125 -18.125 C 8.148438 -18.125 7.535156 -18.347656 7.109375 -18.796875 C 6.679688 -19.253906 6.46875 -19.800781 6.46875 -20.4375 C 6.46875 -20.59375 6.488281 -20.78125 6.53125 -21 C 6.582031 -21.21875 6.648438 -21.410156 6.734375 -21.578125 C 6.992188 -21.453125 7.375 -21.363281 7.875 -21.3125 C 8.382812 -21.269531 8.984375 -21.25 9.671875 -21.25 C 10.679688 -21.25 11.828125 -21.289062 13.109375 -21.375 C 14.398438 -21.46875 15.632812 -21.5625 16.8125 -21.65625 C 17.988281 -21.757812 19.023438 -21.851562 19.921875 -21.9375 C 20.828125 -22.03125 21.40625 -22.078125 21.65625 -22.078125 C 22.394531 -22.078125 22.929688 -21.800781 23.265625 -21.25 C 23.597656 -20.707031 23.84375 -19.976562 24 -19.0625 C 23.476562 -19.101562 22.960938 -19.132812 22.453125 -19.15625 C 21.941406 -19.1875 21.507812 -19.203125 21.15625 -19.203125 C 20.519531 -19.203125 19.875 -19.179688 19.21875 -19.140625 C 18.570312 -19.109375 17.921875 -19.050781 17.265625 -18.96875 C 16.984375 -18.394531 16.671875 -17.710938 16.328125 -16.921875 C 15.992188 -16.128906 15.660156 -15.304688 15.328125 -14.453125 C 15.003906 -13.597656 14.691406 -12.742188 14.390625 -11.890625 C 14.085938 -11.046875 13.828125 -10.285156 13.609375 -9.609375 C 13.171875 -8.285156 12.785156 -7.066406 12.453125 -5.953125 C 12.128906 -4.835938 11.84375 -3.796875 11.59375 -2.828125 C 11.34375 -1.859375 11.128906 -0.9375 10.953125 -0.0625 C 10.773438 0.8125 10.613281 1.671875 10.46875 2.515625 C 9.132812 2.316406 8.019531 1.476562 7.125 0 C 7.28125 -0.613281 7.472656 -1.285156 7.703125 -2.015625 C 7.929688 -2.742188 8.195312 -3.570312 8.5 -4.5 C 8.8125 -5.425781 9.175781 -6.476562 9.59375 -7.65625 C 10.019531 -8.832031 10.503906 -10.171875 11.046875 -11.671875 C 11.242188 -12.222656 11.453125 -12.800781 11.671875 -13.40625 C 11.890625 -14.019531 12.101562 -14.625 12.3125 -15.21875 C 12.519531 -15.820312 12.707031 -16.398438 12.875 -16.953125 C 13.050781 -17.515625 13.195312 -18.023438 13.3125 -18.484375 C 12.476562 -18.390625 11.6875 -18.304688 10.9375 -18.234375 C 10.1875 -18.160156 9.523438 -18.125 8.953125 -18.125 Z M 8.953125 -18.125 "/></g></g></g><g fill="#c68f00" fill-opacity="0.4"><g transform="translate(229.853779, 256.081346)"><g><path d="M 4.375 2.28125 C 3.414062 2 2.75 1.71875 2.375 1.4375 C 2.007812 1.15625 1.828125 0.804688 1.828125 0.390625 C 1.828125 0.0664062 1.914062 -0.378906 2.09375 -0.953125 C 2.269531 -1.535156 2.53125 -2.21875 2.875 -3 C 3.226562 -3.789062 3.648438 -4.664062 4.140625 -5.625 C 4.628906 -6.582031 5.1875 -7.609375 5.8125 -8.703125 C 5.289062 -8.722656 4.820312 -8.738281 4.40625 -8.75 C 4 -8.757812 3.664062 -8.765625 3.40625 -8.765625 C 3.53125 -9.066406 3.867188 -9.328125 4.421875 -9.546875 C 4.984375 -9.765625 5.722656 -9.953125 6.640625 -10.109375 C 7.421875 -11.410156 8.253906 -12.648438 9.140625 -13.828125 C 10.023438 -15.003906 10.914062 -16.082031 11.8125 -17.0625 C 12.71875 -18.050781 13.617188 -18.921875 14.515625 -19.671875 C 15.410156 -20.421875 16.265625 -21.015625 17.078125 -21.453125 C 17.097656 -21.585938 17.113281 -21.707031 17.125 -21.8125 C 17.132812 -21.914062 17.140625 -21.984375 17.140625 -22.015625 C 17.421875 -22.015625 17.796875 -21.945312 18.265625 -21.8125 C 18.734375 -21.675781 19.191406 -21.503906 19.640625 -21.296875 C 20.085938 -21.097656 20.484375 -20.894531 20.828125 -20.6875 C 21.179688 -20.476562 21.378906 -20.304688 21.421875 -20.171875 C 20.765625 -19.015625 20.113281 -17.28125 19.46875 -14.96875 C 18.832031 -12.664062 18.304688 -9.910156 17.890625 -6.703125 C 17.796875 -5.898438 17.710938 -4.988281 17.640625 -3.96875 C 17.566406 -2.957031 17.53125 -1.820312 17.53125 -0.5625 C 17.53125 -0.125 17.53125 0.320312 17.53125 0.78125 C 17.53125 1.238281 17.550781 1.71875 17.59375 2.21875 C 17.550781 2.238281 17.507812 2.25 17.46875 2.25 C 17.4375 2.25 17.359375 2.25 17.234375 2.25 C 16.953125 2.25 16.625 2.203125 16.25 2.109375 C 15.882812 2.015625 15.523438 1.898438 15.171875 1.765625 C 14.828125 1.640625 14.53125 1.5 14.28125 1.34375 C 14.03125 1.1875 13.878906 1.046875 13.828125 0.921875 C 13.804688 0.660156 13.796875 0.40625 13.796875 0.15625 C 13.796875 -0.0820312 13.796875 -0.34375 13.796875 -0.625 C 13.796875 -1.863281 13.835938 -3.117188 13.921875 -4.390625 C 14.015625 -5.671875 14.171875 -6.988281 14.390625 -8.34375 C 14.109375 -8.363281 13.738281 -8.390625 13.28125 -8.421875 C 12.820312 -8.453125 12.304688 -8.476562 11.734375 -8.5 C 11.171875 -8.519531 10.566406 -8.546875 9.921875 -8.578125 C 9.273438 -8.609375 8.640625 -8.628906 8.015625 -8.640625 C 7.535156 -7.742188 7.085938 -6.851562 6.671875 -5.96875 C 6.253906 -5.082031 5.894531 -4.191406 5.59375 -3.296875 C 5.257812 -2.335938 4.984375 -1.378906 4.765625 -0.421875 C 4.554688 0.535156 4.425781 1.4375 4.375 2.28125 Z M 15.921875 -15.703125 C 15.992188 -15.984375 16.085938 -16.367188 16.203125 -16.859375 C 16.316406 -17.347656 16.421875 -17.863281 16.515625 -18.40625 C 16.015625 -18.21875 15.457031 -17.882812 14.84375 -17.40625 C 14.238281 -16.9375 13.613281 -16.347656 12.96875 -15.640625 C 12.320312 -14.929688 11.664062 -14.128906 11 -13.234375 C 10.332031 -12.347656 9.6875 -11.40625 9.0625 -10.40625 C 10.738281 -10.550781 12.644531 -10.644531 14.78125 -10.6875 C 14.9375 -11.519531 15.109375 -12.347656 15.296875 -13.171875 C 15.492188 -14.003906 15.703125 -14.847656 15.921875 -15.703125 Z M 15.921875 -15.703125 "/></g></g></g><g fill="#c68f00" fill-opacity="0.4"><g transform="translate(249.061072, 256.081346)"><g><path d="M 22.5 -20.171875 C 22.5625 -19.828125 22.609375 -19.585938 22.640625 -19.453125 C 22.671875 -19.328125 22.6875 -19.15625 22.6875 -18.9375 C 22.6875 -18.28125 22.539062 -17.664062 22.25 -17.09375 C 21.957031 -16.53125 21.5625 -16.128906 21.0625 -15.890625 C 20.664062 -16.429688 20.175781 -16.894531 19.59375 -17.28125 C 19.019531 -17.664062 18.390625 -17.984375 17.703125 -18.234375 C 17.015625 -18.484375 16.300781 -18.664062 15.5625 -18.78125 C 14.820312 -18.90625 14.101562 -18.96875 13.40625 -18.96875 C 12.707031 -18.96875 12.050781 -18.910156 11.4375 -18.796875 C 10.832031 -18.691406 10.296875 -18.546875 9.828125 -18.359375 C 9.359375 -18.171875 8.988281 -17.9375 8.71875 -17.65625 C 8.445312 -17.375 8.3125 -17.054688 8.3125 -16.703125 C 8.375 -16.253906 8.644531 -15.804688 9.125 -15.359375 C 9.601562 -14.910156 10.191406 -14.472656 10.890625 -14.046875 C 11.585938 -13.617188 12.359375 -13.191406 13.203125 -12.765625 C 14.054688 -12.347656 14.890625 -11.953125 15.703125 -11.578125 C 16.722656 -11.097656 17.601562 -10.65625 18.34375 -10.25 C 19.082031 -9.84375 19.691406 -9.394531 20.171875 -8.90625 C 20.648438 -8.414062 21.007812 -7.859375 21.25 -7.234375 C 21.488281 -6.617188 21.609375 -5.875 21.609375 -5 C 21.609375 -3.976562 21.4375 -3.023438 21.09375 -2.140625 C 20.757812 -1.253906 20.265625 -0.484375 19.609375 0.171875 C 18.960938 0.835938 18.179688 1.351562 17.265625 1.71875 C 16.347656 2.09375 15.320312 2.28125 14.1875 2.28125 C 13.664062 2.28125 13.113281 2.238281 12.53125 2.15625 C 11.957031 2.070312 11.378906 1.960938 10.796875 1.828125 C 10.460938 2.304688 10.148438 2.785156 9.859375 3.265625 C 9.566406 3.742188 9.34375 4.160156 9.1875 4.515625 C 9.363281 4.421875 9.585938 4.328125 9.859375 4.234375 C 10.128906 4.140625 10.398438 4.050781 10.671875 3.96875 C 10.953125 3.894531 11.226562 3.835938 11.5 3.796875 C 11.769531 3.753906 11.992188 3.734375 12.171875 3.734375 C 12.253906 3.734375 12.394531 3.796875 12.59375 3.921875 C 12.789062 4.054688 12.984375 4.203125 13.171875 4.359375 C 13.367188 4.523438 13.539062 4.6875 13.6875 4.84375 C 13.832031 5.007812 13.90625 5.128906 13.90625 5.203125 C 13.90625 5.347656 13.785156 5.566406 13.546875 5.859375 C 13.316406 6.160156 13.015625 6.488281 12.640625 6.84375 C 12.273438 7.207031 11.863281 7.585938 11.40625 7.984375 C 10.945312 8.390625 10.503906 8.75 10.078125 9.0625 C 9.660156 9.382812 9.273438 9.648438 8.921875 9.859375 C 8.578125 10.066406 8.328125 10.171875 8.171875 10.171875 C 8.128906 10.171875 8.070312 10.125 8 10.03125 C 7.9375 9.945312 7.867188 9.84375 7.796875 9.71875 C 7.722656 9.601562 7.660156 9.484375 7.609375 9.359375 C 7.566406 9.242188 7.546875 9.15625 7.546875 9.09375 C 8.003906 8.71875 8.398438 8.367188 8.734375 8.046875 C 9.078125 7.722656 9.382812 7.410156 9.65625 7.109375 C 9.9375 6.816406 10.195312 6.5 10.4375 6.15625 C 10.675781 5.820312 10.925781 5.445312 11.1875 5.03125 C 11.03125 5.070312 10.800781 5.125 10.5 5.1875 C 10.195312 5.257812 9.878906 5.347656 9.546875 5.453125 C 9.222656 5.566406 8.894531 5.675781 8.5625 5.78125 C 8.238281 5.894531 7.957031 5.992188 7.71875 6.078125 C 7.65625 6.035156 7.601562 5.976562 7.5625 5.90625 C 7.53125 5.84375 7.503906 5.78125 7.484375 5.71875 C 7.535156 5.539062 7.640625 5.296875 7.796875 4.984375 C 7.960938 4.671875 8.160156 4.328125 8.390625 3.953125 C 8.617188 3.585938 8.878906 3.203125 9.171875 2.796875 C 9.460938 2.390625 9.765625 1.992188 10.078125 1.609375 C 9.179688 1.359375 8.300781 1.03125 7.4375 0.625 C 6.582031 0.226562 5.828125 -0.21875 5.171875 -0.71875 C 4.515625 -1.21875 3.984375 -1.75 3.578125 -2.3125 C 3.179688 -2.882812 2.984375 -3.476562 2.984375 -4.09375 C 2.984375 -4.5 3.097656 -5.007812 3.328125 -5.625 C 3.566406 -6.238281 3.984375 -6.882812 4.578125 -7.5625 C 4.640625 -6.96875 4.960938 -6.257812 5.546875 -5.4375 C 6.140625 -4.625 7.023438 -3.867188 8.203125 -3.171875 C 9.296875 -2.535156 10.425781 -2.070312 11.59375 -1.78125 C 12.757812 -1.488281 13.851562 -1.34375 14.875 -1.34375 C 15.988281 -1.34375 16.894531 -1.484375 17.59375 -1.765625 C 18.289062 -2.046875 18.835938 -2.378906 19.234375 -2.765625 C 19.640625 -3.148438 19.921875 -3.539062 20.078125 -3.9375 C 20.234375 -4.34375 20.320312 -4.664062 20.34375 -4.90625 C 20.320312 -5.300781 20.132812 -5.679688 19.78125 -6.046875 C 19.4375 -6.421875 18.96875 -6.78125 18.375 -7.125 C 17.789062 -7.476562 17.109375 -7.832031 16.328125 -8.1875 C 15.554688 -8.550781 14.75 -8.914062 13.90625 -9.28125 C 12.65625 -9.832031 11.578125 -10.351562 10.671875 -10.84375 C 9.765625 -11.332031 9.015625 -11.832031 8.421875 -12.34375 C 7.835938 -12.851562 7.410156 -13.382812 7.140625 -13.9375 C 6.867188 -14.5 6.734375 -15.140625 6.734375 -15.859375 C 6.734375 -16.972656 7.070312 -18.03125 7.75 -19.03125 C 8.425781 -20.03125 9.40625 -20.785156 10.6875 -21.296875 C 11.320312 -21.578125 12.003906 -21.773438 12.734375 -21.890625 C 13.460938 -22.015625 14.175781 -22.078125 14.875 -22.078125 C 16.1875 -22.078125 17.46875 -21.894531 18.71875 -21.53125 C 19.976562 -21.175781 21.238281 -20.722656 22.5 -20.171875 Z M 22.5 -20.171875 "/></g></g></g><g fill="#c62900" fill-opacity="1"><g transform="translate(210.939483, 254.758766)"><g><path d="M 8.953125 -18.125 C 8.148438 -18.125 7.535156 -18.347656 7.109375 -18.796875 C 6.679688 -19.253906 6.46875 -19.800781 6.46875 -20.4375 C 6.46875 -20.59375 6.488281 -20.78125 6.53125 -21 C 6.582031 -21.21875 6.648438 -21.410156 6.734375 -21.578125 C 6.992188 -21.453125 7.375 -21.363281 7.875 -21.3125 C 8.382812 -21.269531 8.984375 -21.25 9.671875 -21.25 C 10.679688 -21.25 11.828125 -21.289062 13.109375 -21.375 C 14.398438 -21.46875 15.632812 -21.5625 16.8125 -21.65625 C 17.988281 -21.757812 19.023438 -21.851562 19.921875 -21.9375 C 20.828125 -22.03125 21.40625 -22.078125 21.65625 -22.078125 C 22.394531 -22.078125 22.929688 -21.800781 23.265625 -21.25 C 23.597656 -20.707031 23.84375 -19.976562 24 -19.0625 C 23.476562 -19.101562 22.960938 -19.132812 22.453125 -19.15625 C 21.941406 -19.1875 21.507812 -19.203125 21.15625 -19.203125 C 20.519531 -19.203125 19.875 -19.179688 19.21875 -19.140625 C 18.570312 -19.109375 17.921875 -19.050781 17.265625 -18.96875 C 16.984375 -18.394531 16.671875 -17.710938 16.328125 -16.921875 C 15.992188 -16.128906 15.660156 -15.304688 15.328125 -14.453125 C 15.003906 -13.597656 14.691406 -12.742188 14.390625 -11.890625 C 14.085938 -11.046875 13.828125 -10.285156 13.609375 -9.609375 C 13.171875 -8.285156 12.785156 -7.066406 12.453125 -5.953125 C 12.128906 -4.835938 11.84375 -3.796875 11.59375 -2.828125 C 11.34375 -1.859375 11.128906 -0.9375 10.953125 -0.0625 C 10.773438 0.8125 10.613281 1.671875 10.46875 2.515625 C 9.132812 2.316406 8.019531 1.476562 7.125 0 C 7.28125 -0.613281 7.472656 -1.285156 7.703125 -2.015625 C 7.929688 -2.742188 8.195312 -3.570312 8.5 -4.5 C 8.8125 -5.425781 9.175781 -6.476562 9.59375 -7.65625 C 10.019531 -8.832031 10.503906 -10.171875 11.046875 -11.671875 C 11.242188 -12.222656 11.453125 -12.800781 11.671875 -13.40625 C 11.890625 -14.019531 12.101562 -14.625 12.3125 -15.21875 C 12.519531 -15.820312 12.707031 -16.398438 12.875 -16.953125 C 13.050781 -17.515625 13.195312 -18.023438 13.3125 -18.484375 C 12.476562 -18.390625 11.6875 -18.304688 10.9375 -18.234375 C 10.1875 -18.160156 9.523438 -18.125 8.953125 -18.125 Z M 8.953125 -18.125 "/></g></g></g><g fill="#c62900" fill-opacity="1"><g transform="translate(228.531202, 254.758766)"><g><path d="M 4.375 2.28125 C 3.414062 2 2.75 1.71875 2.375 1.4375 C 2.007812 1.15625 1.828125 0.804688 1.828125 0.390625 C 1.828125 0.0664062 1.914062 -0.378906 2.09375 -0.953125 C 2.269531 -1.535156 2.53125 -2.21875 2.875 -3 C 3.226562 -3.789062 3.648438 -4.664062 4.140625 -5.625 C 4.628906 -6.582031 5.1875 -7.609375 5.8125 -8.703125 C 5.289062 -8.722656 4.820312 -8.738281 4.40625 -8.75 C 4 -8.757812 3.664062 -8.765625 3.40625 -8.765625 C 3.53125 -9.066406 3.867188 -9.328125 4.421875 -9.546875 C 4.984375 -9.765625 5.722656 -9.953125 6.640625 -10.109375 C 7.421875 -11.410156 8.253906 -12.648438 9.140625 -13.828125 C 10.023438 -15.003906 10.914062 -16.082031 11.8125 -17.0625 C 12.71875 -18.050781 13.617188 -18.921875 14.515625 -19.671875 C 15.410156 -20.421875 16.265625 -21.015625 17.078125 -21.453125 C 17.097656 -21.585938 17.113281 -21.707031 17.125 -21.8125 C 17.132812 -21.914062 17.140625 -21.984375 17.140625 -22.015625 C 17.421875 -22.015625 17.796875 -21.945312 18.265625 -21.8125 C 18.734375 -21.675781 19.191406 -21.503906 19.640625 -21.296875 C 20.085938 -21.097656 20.484375 -20.894531 20.828125 -20.6875 C 21.179688 -20.476562 21.378906 -20.304688 21.421875 -20.171875 C 20.765625 -19.015625 20.113281 -17.28125 19.46875 -14.96875 C 18.832031 -12.664062 18.304688 -9.910156 17.890625 -6.703125 C 17.796875 -5.898438 17.710938 -4.988281 17.640625 -3.96875 C 17.566406 -2.957031 17.53125 -1.820312 17.53125 -0.5625 C 17.53125 -0.125 17.53125 0.320312 17.53125 0.78125 C 17.53125 1.238281 17.550781 1.71875 17.59375 2.21875 C 17.550781 2.238281 17.507812 2.25 17.46875 2.25 C 17.4375 2.25 17.359375 2.25 17.234375 2.25 C 16.953125 2.25 16.625 2.203125 16.25 2.109375 C 15.882812 2.015625 15.523438 1.898438 15.171875 1.765625 C 14.828125 1.640625 14.53125 1.5 14.28125 1.34375 C 14.03125 1.1875 13.878906 1.046875 13.828125 0.921875 C 13.804688 0.660156 13.796875 0.40625 13.796875 0.15625 C 13.796875 -0.0820312 13.796875 -0.34375 13.796875 -0.625 C 13.796875 -1.863281 13.835938 -3.117188 13.921875 -4.390625 C 14.015625 -5.671875 14.171875 -6.988281 14.390625 -8.34375 C 14.109375 -8.363281 13.738281 -8.390625 13.28125 -8.421875 C 12.820312 -8.453125 12.304688 -8.476562 11.734375 -8.5 C 11.171875 -8.519531 10.566406 -8.546875 9.921875 -8.578125 C 9.273438 -8.609375 8.640625 -8.628906 8.015625 -8.640625 C 7.535156 -7.742188 7.085938 -6.851562 6.671875 -5.96875 C 6.253906 -5.082031 5.894531 -4.191406 5.59375 -3.296875 C 5.257812 -2.335938 4.984375 -1.378906 4.765625 -0.421875 C 4.554688 0.535156 4.425781 1.4375 4.375 2.28125 Z M 15.921875 -15.703125 C 15.992188 -15.984375 16.085938 -16.367188 16.203125 -16.859375 C 16.316406 -17.347656 16.421875 -17.863281 16.515625 -18.40625 C 16.015625 -18.21875 15.457031 -17.882812 14.84375 -17.40625 C 14.238281 -16.9375 13.613281 -16.347656 12.96875 -15.640625 C 12.320312 -14.929688 11.664062 -14.128906 11 -13.234375 C 10.332031 -12.347656 9.6875 -11.40625 9.0625 -10.40625 C 10.738281 -10.550781 12.644531 -10.644531 14.78125 -10.6875 C 14.9375 -11.519531 15.109375 -12.347656 15.296875 -13.171875 C 15.492188 -14.003906 15.703125 -14.847656 15.921875 -15.703125 Z M 15.921875 -15.703125 "/></g></g></g><g fill="#c62900" fill-opacity="1"><g transform="translate(247.738495, 254.758766)"><g><path d="M 22.5 -20.171875 C 22.5625 -19.828125 22.609375 -19.585938 22.640625 -19.453125 C 22.671875 -19.328125 22.6875 -19.15625 22.6875 -18.9375 C 22.6875 -18.28125 22.539062 -17.664062 22.25 -17.09375 C 21.957031 -16.53125 21.5625 -16.128906 21.0625 -15.890625 C 20.664062 -16.429688 20.175781 -16.894531 19.59375 -17.28125 C 19.019531 -17.664062 18.390625 -17.984375 17.703125 -18.234375 C 17.015625 -18.484375 16.300781 -18.664062 15.5625 -18.78125 C 14.820312 -18.90625 14.101562 -18.96875 13.40625 -18.96875 C 12.707031 -18.96875 12.050781 -18.910156 11.4375 -18.796875 C 10.832031 -18.691406 10.296875 -18.546875 9.828125 -18.359375 C 9.359375 -18.171875 8.988281 -17.9375 8.71875 -17.65625 C 8.445312 -17.375 8.3125 -17.054688 8.3125 -16.703125 C 8.375 -16.253906 8.644531 -15.804688 9.125 -15.359375 C 9.601562 -14.910156 10.191406 -14.472656 10.890625 -14.046875 C 11.585938 -13.617188 12.359375 -13.191406 13.203125 -12.765625 C 14.054688 -12.347656 14.890625 -11.953125 15.703125 -11.578125 C 16.722656 -11.097656 17.601562 -10.65625 18.34375 -10.25 C 19.082031 -9.84375 19.691406 -9.394531 20.171875 -8.90625 C 20.648438 -8.414062 21.007812 -7.859375 21.25 -7.234375 C 21.488281 -6.617188 21.609375 -5.875 21.609375 -5 C 21.609375 -3.976562 21.4375 -3.023438 21.09375 -2.140625 C 20.757812 -1.253906 20.265625 -0.484375 19.609375 0.171875 C 18.960938 0.835938 18.179688 1.351562 17.265625 1.71875 C 16.347656 2.09375 15.320312 2.28125 14.1875 2.28125 C 13.664062 2.28125 13.113281 2.238281 12.53125 2.15625 C 11.957031 2.070312 11.378906 1.960938 10.796875 1.828125 C 10.460938 2.304688 10.148438 2.785156 9.859375 3.265625 C 9.566406 3.742188 9.34375 4.160156 9.1875 4.515625 C 9.363281 4.421875 9.585938 4.328125 9.859375 4.234375 C 10.128906 4.140625 10.398438 4.050781 10.671875 3.96875 C 10.953125 3.894531 11.226562 3.835938 11.5 3.796875 C 11.769531 3.753906 11.992188 3.734375 12.171875 3.734375 C 12.253906 3.734375 12.394531 3.796875 12.59375 3.921875 C 12.789062 4.054688 12.984375 4.203125 13.171875 4.359375 C 13.367188 4.523438 13.539062 4.6875 13.6875 4.84375 C 13.832031 5.007812 13.90625 5.128906 13.90625 5.203125 C 13.90625 5.347656 13.785156 5.566406 13.546875 5.859375 C 13.316406 6.160156 13.015625 6.488281 12.640625 6.84375 C 12.273438 7.207031 11.863281 7.585938 11.40625 7.984375 C 10.945312 8.390625 10.503906 8.75 10.078125 9.0625 C 9.660156 9.382812 9.273438 9.648438 8.921875 9.859375 C 8.578125 10.066406 8.328125 10.171875 8.171875 10.171875 C 8.128906 10.171875 8.070312 10.125 8 10.03125 C 7.9375 9.945312 7.867188 9.84375 7.796875 9.71875 C 7.722656 9.601562 7.660156 9.484375 7.609375 9.359375 C 7.566406 9.242188 7.546875 9.15625 7.546875 9.09375 C 8.003906 8.71875 8.398438 8.367188 8.734375 8.046875 C 9.078125 7.722656 9.382812 7.410156 9.65625 7.109375 C 9.9375 6.816406 10.195312 6.5 10.4375 6.15625 C 10.675781 5.820312 10.925781 5.445312 11.1875 5.03125 C 11.03125 5.070312 10.800781 5.125 10.5 5.1875 C 10.195312 5.257812 9.878906 5.347656 9.546875 5.453125 C 9.222656 5.566406 8.894531 5.675781 8.5625 5.78125 C 8.238281 5.894531 7.957031 5.992188 7.71875 6.078125 C 7.65625 6.035156 7.601562 5.976562 7.5625 5.90625 C 7.53125 5.84375 7.503906 5.78125 7.484375 5.71875 C 7.535156 5.539062 7.640625 5.296875 7.796875 4.984375 C 7.960938 4.671875 8.160156 4.328125 8.390625 3.953125 C 8.617188 3.585938 8.878906 3.203125 9.171875 2.796875 C 9.460938 2.390625 9.765625 1.992188 10.078125 1.609375 C 9.179688 1.359375 8.300781 1.03125 7.4375 0.625 C 6.582031 0.226562 5.828125 -0.21875 5.171875 -0.71875 C 4.515625 -1.21875 3.984375 -1.75 3.578125 -2.3125 C 3.179688 -2.882812 2.984375 -3.476562 2.984375 -4.09375 C 2.984375 -4.5 3.097656 -5.007812 3.328125 -5.625 C 3.566406 -6.238281 3.984375 -6.882812 4.578125 -7.5625 C 4.640625 -6.96875 4.960938 -6.257812 5.546875 -5.4375 C 6.140625 -4.625 7.023438 -3.867188 8.203125 -3.171875 C 9.296875 -2.535156 10.425781 -2.070312 11.59375 -1.78125 C 12.757812 -1.488281 13.851562 -1.34375 14.875 -1.34375 C 15.988281 -1.34375 16.894531 -1.484375 17.59375 -1.765625 C 18.289062 -2.046875 18.835938 -2.378906 19.234375 -2.765625 C 19.640625 -3.148438 19.921875 -3.539062 20.078125 -3.9375 C 20.234375 -4.34375 20.320312 -4.664062 20.34375 -4.90625 C 20.320312 -5.300781 20.132812 -5.679688 19.78125 -6.046875 C 19.4375 -6.421875 18.96875 -6.78125 18.375 -7.125 C 17.789062 -7.476562 17.109375 -7.832031 16.328125 -8.1875 C 15.554688 -8.550781 14.75 -8.914062 13.90625 -9.28125 C 12.65625 -9.832031 11.578125 -10.351562 10.671875 -10.84375 C 9.765625 -11.332031 9.015625 -11.832031 8.421875 -12.34375 C 7.835938 -12.851562 7.410156 -13.382812 7.140625 -13.9375 C 6.867188 -14.5 6.734375 -15.140625 6.734375 -15.859375 C 6.734375 -16.972656 7.070312 -18.03125 7.75 -19.03125 C 8.425781 -20.03125 9.40625 -20.785156 10.6875 -21.296875 C 11.320312 -21.578125 12.003906 -21.773438 12.734375 -21.890625 C 13.460938 -22.015625 14.175781 -22.078125 14.875 -22.078125 C 16.1875 -22.078125 17.46875 -21.894531 18.71875 -21.53125 C 19.976562 -21.175781 21.238281 -20.722656 22.5 -20.171875 Z M 22.5 -20.171875 "/></g></g></g></svg>